<mxfile host="65bd71144e">
    <diagram id="qIjyEogzq0ysslTy0u9M" name="Page-1">
        <mxGraphModel dx="942" dy="2529" grid="0" gridSize="10" guides="1" tooltips="1" connect="1" arrows="1" fold="1" page="1" pageScale="1" pageWidth="1200" pageHeight="1920" background="#4D4D4D" math="0" shadow="0">
            <root>
                <mxCell id="0"/>
                <mxCell id="1" parent="0"/>
                <mxCell id="7" value="" style="endArrow=none;html=1;" edge="1" parent="1">
                    <mxGeometry width="50" height="50" relative="1" as="geometry">
                        <mxPoint x="240" y="-80" as="sourcePoint"/>
                        <mxPoint x="240" y="-480" as="targetPoint"/>
                    </mxGeometry>
                </mxCell>
                <mxCell id="8" value="&lt;font style=&quot;font-size: 17px;&quot;&gt;初始化&lt;/font&gt;" style="edgeLabel;html=1;align=center;verticalAlign=middle;resizable=0;points=[];" vertex="1" connectable="0" parent="7">
                    <mxGeometry x="-0.81" y="1" relative="1" as="geometry">
                        <mxPoint y="-2" as="offset"/>
                    </mxGeometry>
                </mxCell>
                <mxCell id="9" value="" style="endArrow=none;html=1;" edge="1" parent="1">
                    <mxGeometry width="50" height="50" relative="1" as="geometry">
                        <mxPoint x="440" y="-80" as="sourcePoint"/>
                        <mxPoint x="440" y="-480" as="targetPoint"/>
                        <Array as="points">
                            <mxPoint x="440" y="-270"/>
                        </Array>
                    </mxGeometry>
                </mxCell>
                <mxCell id="10" value="&lt;font style=&quot;font-size: 17px;&quot;&gt;rmm_entry&lt;/font&gt;" style="edgeLabel;html=1;align=center;verticalAlign=middle;resizable=0;points=[];" vertex="1" connectable="0" parent="9">
                    <mxGeometry x="-0.81" y="1" relative="1" as="geometry">
                        <mxPoint y="-72" as="offset"/>
                    </mxGeometry>
                </mxCell>
                <mxCell id="12" value="smc #0" style="edgeLabel;html=1;align=center;verticalAlign=middle;resizable=0;points=[];fontSize=17;" vertex="1" connectable="0" parent="9">
                    <mxGeometry x="-0.245" y="3" relative="1" as="geometry">
                        <mxPoint as="offset"/>
                    </mxGeometry>
                </mxCell>
                <mxCell id="17" value="rmm_handler" style="edgeLabel;html=1;align=center;verticalAlign=middle;resizable=0;points=[];fontSize=17;" vertex="1" connectable="0" parent="9">
                    <mxGeometry x="0.02" relative="1" as="geometry">
                        <mxPoint as="offset"/>
                    </mxGeometry>
                </mxCell>
                <mxCell id="33" value="handle_ns_smc" style="edgeLabel;html=1;align=center;verticalAlign=middle;resizable=0;points=[];fontSize=17;fontColor=#FFFFFF;" vertex="1" connectable="0" parent="9">
                    <mxGeometry x="0.3467" y="3" relative="1" as="geometry">
                        <mxPoint as="offset"/>
                    </mxGeometry>
                </mxCell>
                <mxCell id="34" value="smc #0" style="edgeLabel;html=1;align=center;verticalAlign=middle;resizable=0;points=[];fontSize=17;fontColor=#FFFFFF;" vertex="1" connectable="0" parent="9">
                    <mxGeometry x="0.5267" relative="1" as="geometry">
                        <mxPoint as="offset"/>
                    </mxGeometry>
                </mxCell>
                <mxCell id="11" value="" style="endArrow=classic;html=1;fontSize=17;edgeStyle=orthogonalEdgeStyle;" edge="1" parent="1">
                    <mxGeometry width="50" height="50" relative="1" as="geometry">
                        <mxPoint x="270" y="-120" as="sourcePoint"/>
                        <mxPoint x="400" y="-190" as="targetPoint"/>
                        <Array as="points">
                            <mxPoint x="340" y="-120"/>
                            <mxPoint x="340" y="-190"/>
                        </Array>
                    </mxGeometry>
                </mxCell>
                <mxCell id="26" value="0" style="edgeLabel;html=1;align=center;verticalAlign=middle;resizable=0;points=[];fontSize=17;" vertex="1" connectable="0" parent="11">
                    <mxGeometry x="-0.09" y="2" relative="1" as="geometry">
                        <mxPoint as="offset"/>
                    </mxGeometry>
                </mxCell>
                <mxCell id="18" value="" style="endArrow=classic;html=1;fontSize=17;edgeStyle=orthogonalEdgeStyle;" edge="1" parent="1">
                    <mxGeometry width="50" height="50" relative="1" as="geometry">
                        <mxPoint x="400" y="-230" as="sourcePoint"/>
                        <mxPoint x="240" y="-230" as="targetPoint"/>
                    </mxGeometry>
                </mxCell>
                <mxCell id="29" value="1" style="edgeLabel;html=1;align=center;verticalAlign=middle;resizable=0;points=[];fontSize=17;" vertex="1" connectable="0" parent="18">
                    <mxGeometry x="-0.1667" relative="1" as="geometry">
                        <mxPoint as="offset"/>
                    </mxGeometry>
                </mxCell>
                <mxCell id="19" value="" style="endArrow=none;html=1;fontSize=17;" edge="1" parent="1">
                    <mxGeometry width="50" height="50" relative="1" as="geometry">
                        <mxPoint x="40" y="-80" as="sourcePoint"/>
                        <mxPoint x="40" y="-480" as="targetPoint"/>
                    </mxGeometry>
                </mxCell>
                <mxCell id="21" value="" style="curved=1;endArrow=classic;html=1;fontSize=17;" edge="1" parent="1">
                    <mxGeometry width="50" height="50" relative="1" as="geometry">
                        <mxPoint x="40" y="-320" as="sourcePoint"/>
                        <mxPoint x="240" y="-320" as="targetPoint"/>
                    </mxGeometry>
                </mxCell>
                <mxCell id="24" value="2" style="edgeLabel;html=1;align=center;verticalAlign=middle;resizable=0;points=[];fontSize=17;" vertex="1" connectable="0" parent="21">
                    <mxGeometry x="-0.1267" y="2" relative="1" as="geometry">
                        <mxPoint as="offset"/>
                    </mxGeometry>
                </mxCell>
                <mxCell id="25" value="" style="curved=1;endArrow=classic;html=1;fontSize=17;" edge="1" parent="1">
                    <mxGeometry width="50" height="50" relative="1" as="geometry">
                        <mxPoint x="240" y="-320" as="sourcePoint"/>
                        <mxPoint x="440" y="-240" as="targetPoint"/>
                    </mxGeometry>
                </mxCell>
                <mxCell id="30" value="3" style="edgeLabel;html=1;align=center;verticalAlign=middle;resizable=0;points=[];fontSize=17;" vertex="1" connectable="0" parent="25">
                    <mxGeometry x="-0.1023" y="-1" relative="1" as="geometry">
                        <mxPoint as="offset"/>
                    </mxGeometry>
                </mxCell>
                <mxCell id="35" value="4" style="curved=1;endArrow=classic;html=1;fontSize=17;fontColor=#FFFFFF;" edge="1" parent="1">
                    <mxGeometry width="50" height="50" relative="1" as="geometry">
                        <mxPoint x="410" y="-380" as="sourcePoint"/>
                        <mxPoint x="240" y="-380" as="targetPoint"/>
                    </mxGeometry>
                </mxCell>
                <mxCell id="36" value="" style="endArrow=classic;html=1;fontSize=17;fontColor=#FFFFFF;edgeStyle=orthogonalEdgeStyle;" edge="1" parent="1">
                    <mxGeometry width="50" height="50" relative="1" as="geometry">
                        <mxPoint x="440" y="-420" as="sourcePoint"/>
                        <mxPoint x="490" y="-280" as="targetPoint"/>
                        <Array as="points">
                            <mxPoint x="440" y="-440"/>
                            <mxPoint x="610" y="-440"/>
                            <mxPoint x="610" y="-280"/>
                        </Array>
                    </mxGeometry>
                </mxCell>
                <mxCell id="37" value="" style="curved=1;endArrow=classic;html=1;fontSize=17;fontColor=#FFFFFF;" edge="1" parent="1">
                    <mxGeometry width="50" height="50" relative="1" as="geometry">
                        <mxPoint x="240" y="-400" as="sourcePoint"/>
                        <mxPoint x="40" y="-400" as="targetPoint"/>
                    </mxGeometry>
                </mxCell>
                <mxCell id="38" value="5" style="edgeLabel;html=1;align=center;verticalAlign=middle;resizable=0;points=[];fontSize=17;fontColor=#FFFFFF;" vertex="1" connectable="0" parent="37">
                    <mxGeometry x="0.1667" relative="1" as="geometry">
                        <mxPoint as="offset"/>
                    </mxGeometry>
                </mxCell>
                <mxCell id="40" value="" style="endArrow=classic;html=1;fontSize=17;fontColor=#FFFFFF;" edge="1" parent="1">
                    <mxGeometry width="50" height="50" relative="1" as="geometry">
                        <mxPoint x="240" y="-420" as="sourcePoint"/>
                        <mxPoint x="440" y="-390" as="targetPoint"/>
                    </mxGeometry>
                </mxCell>
                <mxCell id="49" value="RMM 接口" style="edgeLabel;html=1;align=center;verticalAlign=middle;resizable=0;points=[];fontSize=17;fontColor=#FFFFFF;" vertex="1" connectable="0" parent="40">
                    <mxGeometry x="-0.2761" y="2" relative="1" as="geometry">
                        <mxPoint x="28" y="-19" as="offset"/>
                    </mxGeometry>
                </mxCell>
                <mxCell id="41" value="Realm" style="text;html=1;align=center;verticalAlign=middle;resizable=0;points=[];autosize=1;strokeColor=none;fillColor=none;fontSize=17;fontColor=#FFFFFF;labelBackgroundColor=#000000;" vertex="1" parent="1">
                    <mxGeometry y="-70" width="70" height="30" as="geometry"/>
                </mxCell>
                <mxCell id="42" value="Root" style="text;html=1;align=center;verticalAlign=middle;resizable=0;points=[];autosize=1;strokeColor=none;fillColor=none;fontSize=17;fontColor=#FFFFFF;labelBackgroundColor=#000000;" vertex="1" parent="1">
                    <mxGeometry x="215" y="-70" width="60" height="30" as="geometry"/>
                </mxCell>
                <mxCell id="43" value="RMM" style="text;html=1;align=center;verticalAlign=middle;resizable=0;points=[];autosize=1;strokeColor=none;fillColor=none;fontSize=17;fontColor=#FFFFFF;labelBackgroundColor=#000000;" vertex="1" parent="1">
                    <mxGeometry x="420" y="-70" width="60" height="30" as="geometry"/>
                </mxCell>
                <mxCell id="44" value="RSI 接口&lt;br&gt;svc 指令" style="text;html=1;align=center;verticalAlign=middle;resizable=0;points=[];autosize=1;strokeColor=none;fillColor=none;fontSize=17;fontColor=#FFFFFF;labelBackgroundColor=#000000;" vertex="1" parent="1">
                    <mxGeometry x="85" y="-310" width="90" height="50" as="geometry"/>
                </mxCell>
                <mxCell id="47" value="&lt;span style=&quot;color: rgb(255, 255, 255); font-family: Helvetica; font-size: 17px; font-style: normal; font-variant-ligatures: normal; font-variant-caps: normal; font-weight: 400; letter-spacing: normal; orphans: 2; text-align: center; text-indent: 0px; text-transform: none; widows: 2; word-spacing: 0px; -webkit-text-stroke-width: 0px; background-color: rgb(0, 0, 0); text-decoration-thickness: initial; text-decoration-style: initial; text-decoration-color: initial; float: none; display: inline !important;&quot;&gt;回到上次退出的点&lt;/span&gt;" style="text;whiteSpace=wrap;html=1;fontSize=17;fontColor=#FFFFFF;" vertex="1" parent="1">
                    <mxGeometry x="300" y="-350" width="70" height="50" as="geometry"/>
                </mxCell>
                <mxCell id="50" value="&lt;div style=&quot;text-align: center;&quot;&gt;&lt;span style=&quot;background-color: rgb(0, 0, 0);&quot;&gt;每次调完 handler，smc 回到 root&lt;/span&gt;&lt;/div&gt;&lt;div style=&quot;text-align: center;&quot;&gt;&lt;span style=&quot;background-color: rgb(0, 0, 0);&quot;&gt;smc 回来后继续调用 handler&lt;/span&gt;&lt;/div&gt;" style="text;whiteSpace=wrap;html=1;fontSize=17;fontColor=#FFFFFF;" vertex="1" parent="1">
                    <mxGeometry x="620" y="-380" width="260" height="50" as="geometry"/>
                </mxCell>
            </root>
        </mxGraphModel>
    </diagram>
</mxfile>
